<svg id="svg" version="1.1" xmlns="http://www.w3.org/2000/svg" xmlns:xlink="http://www.w3.org/1999/xlink" width="400" height="167.05336426914153" viewBox="0, 0, 400,167.05336426914153"><g id="svgg"><path id="path0" d="M0.000 83.542 L 0.000 167.084 200.000 167.084 L 400.000 167.084 400.000 83.542 L 400.000 0.000 200.000 0.000 L 0.000 0.000 0.000 83.542 M67.388 36.164 C 67.648 36.222,68.512 36.671,69.310 37.161 C 70.108 37.652,70.986 38.178,71.261 38.330 C 71.537 38.482,71.988 38.751,72.264 38.926 C 72.540 39.102,72.960 39.351,73.197 39.479 C 73.900 39.859,78.243 42.458,78.702 42.773 C 78.934 42.933,79.423 43.226,79.788 43.425 C 80.153 43.624,80.795 43.991,81.215 44.241 C 81.635 44.491,83.552 45.621,85.476 46.752 C 87.399 47.884,89.085 48.878,89.223 48.961 C 90.199 49.553,91.791 50.485,92.565 50.919 C 93.070 51.202,94.499 52.037,95.739 52.775 C 96.980 53.513,98.521 54.414,99.165 54.778 C 102.383 56.597,102.555 60.492,99.469 61.665 C 98.557 62.012,33.919 61.852,33.147 61.502 C 31.196 60.616,30.649 57.450,32.183 55.916 C 32.587 55.512,35.215 53.855,36.926 52.926 C 37.339 52.701,38.805 51.841,40.184 51.014 C 41.562 50.188,43.517 49.035,44.528 48.453 C 45.539 47.871,47.155 46.927,48.120 46.355 C 49.085 45.783,50.138 45.167,50.459 44.986 C 50.781 44.806,52.125 44.005,53.445 43.208 C 54.765 42.410,56.119 41.610,56.453 41.428 C 56.786 41.247,57.172 41.026,57.310 40.937 C 57.939 40.530,63.603 37.141,63.826 37.038 C 63.964 36.975,64.329 36.770,64.637 36.584 C 65.241 36.219,66.262 35.930,66.667 36.010 C 66.805 36.037,67.129 36.106,67.388 36.164 M353.387 56.520 C 353.599 56.839,353.646 58.956,353.718 71.233 L 353.801 85.574 355.056 84.266 C 356.182 83.092,359.325 79.729,360.729 78.195 C 362.339 76.437,362.654 75.837,362.278 75.246 C 362.138 75.025,360.240 74.353,359.758 74.353 C 358.934 74.353,358.774 72.460,359.566 72.062 C 360.088 71.799,370.163 71.755,370.841 72.012 C 371.254 72.169,371.275 72.232,371.228 73.198 L 371.178 74.218 370.510 74.465 C 370.142 74.601,369.653 74.763,369.424 74.825 C 367.808 75.260,365.367 77.065,362.281 80.109 C 359.321 83.027,359.399 82.760,360.902 84.795 C 361.546 85.666,362.072 86.449,362.072 86.534 C 362.072 86.619,362.139 86.714,362.221 86.745 C 362.303 86.775,362.660 87.223,363.015 87.740 C 363.369 88.257,363.978 89.121,364.368 89.661 C 365.286 90.933,367.653 94.298,368.226 95.146 C 369.441 96.943,370.340 97.642,371.795 97.918 C 373.292 98.201,374.045 99.405,373.233 100.217 C 373.008 100.442,365.312 100.510,364.974 100.290 C 364.789 100.170,363.241 97.978,363.241 97.836 C 363.241 97.797,362.828 97.160,362.322 96.422 C 361.817 95.684,361.404 95.038,361.404 94.985 C 361.404 94.933,361.328 94.799,361.235 94.688 C 361.039 94.453,358.696 91.180,356.907 88.641 C 355.484 86.622,355.498 86.628,354.434 87.662 L 353.634 88.440 353.634 92.411 L 353.634 96.381 354.052 96.826 C 354.511 97.316,355.687 97.911,356.194 97.911 C 357.230 97.911,357.728 98.372,357.728 99.331 C 357.728 100.512,358.236 100.436,350.627 100.381 L 344.277 100.334 344.277 99.346 L 344.277 98.358 345.530 98.057 C 348.320 97.387,348.053 99.461,347.999 78.914 L 347.953 61.571 347.584 60.881 C 347.036 59.855,345.938 59.197,344.560 59.066 C 343.945 59.008,343.329 58.946,343.191 58.927 C 342.891 58.887,342.735 57.031,343.010 56.756 C 343.103 56.663,344.630 56.519,346.402 56.438 C 348.174 56.357,350.338 56.238,351.211 56.173 C 353.069 56.036,353.066 56.035,353.387 56.520 M142.941 64.996 L 142.941 70.092 141.695 70.092 L 140.449 70.092 140.104 69.089 C 139.417 67.094,137.254 63.808,136.295 63.304 C 136.090 63.196,135.884 63.048,135.836 62.976 C 135.586 62.597,133.350 62.415,128.906 62.411 L 124.227 62.406 124.184 70.073 C 124.152 75.594,124.193 77.803,124.330 77.967 C 124.758 78.484,130.415 78.169,131.654 77.560 C 133.156 76.821,134.503 74.483,134.503 72.613 C 134.503 71.624,136.081 71.074,136.871 71.789 C 137.254 72.135,137.354 87.308,136.976 87.686 C 136.263 88.399,134.503 87.794,134.504 86.836 C 134.505 86.163,134.211 85.069,133.726 83.935 C 133.602 83.645,133.500 83.337,133.500 83.251 C 133.500 83.032,132.224 81.789,131.778 81.573 C 130.590 80.998,129.553 80.855,126.901 80.904 L 124.227 80.952 124.180 87.970 C 124.116 97.406,123.999 97.107,128.021 97.802 C 129.432 98.045,129.520 98.140,129.458 99.349 L 129.407 100.334 121.170 100.378 C 112.014 100.426,112.281 100.456,112.281 99.363 C 112.281 98.155,112.525 97.979,114.378 97.849 C 116.108 97.727,116.814 97.475,117.413 96.764 L 117.782 96.324 117.788 80.275 L 117.794 64.226 117.251 63.706 C 116.944 63.411,116.310 63.065,115.789 62.909 C 115.284 62.757,114.740 62.563,114.580 62.477 C 114.421 62.392,113.970 62.321,113.578 62.320 C 113.186 62.319,112.759 62.250,112.630 62.168 C 112.293 61.955,112.161 60.162,112.467 59.967 C 112.597 59.885,119.337 59.838,127.820 59.860 L 142.941 59.900 142.941 64.996 M270.426 60.129 C 270.977 60.242,271.500 60.406,271.587 60.493 C 271.675 60.580,271.879 60.652,272.042 60.652 C 272.456 60.652,274.375 61.715,275.208 62.406 C 279.410 65.894,278.663 74.074,273.918 76.525 C 273.652 76.662,273.396 76.821,273.350 76.878 C 273.226 77.032,271.578 77.784,270.343 78.251 L 269.256 78.661 270.137 78.785 C 270.622 78.852,271.059 78.973,271.108 79.053 C 271.157 79.133,271.362 79.198,271.564 79.199 C 271.765 79.200,272.145 79.312,272.408 79.450 C 272.672 79.587,273.014 79.699,273.170 79.699 C 273.326 79.699,273.599 79.810,273.778 79.945 C 273.956 80.079,274.188 80.192,274.294 80.195 C 275.191 80.220,278.086 82.921,279.024 84.608 C 280.047 86.451,280.487 91.510,279.692 92.304 C 279.604 92.392,279.532 92.608,279.532 92.784 C 279.532 93.752,276.121 98.079,275.357 98.079 C 275.252 98.079,274.919 98.266,274.618 98.496 C 274.317 98.726,273.960 98.914,273.826 98.914 C 273.691 98.914,273.435 99.024,273.257 99.159 C 273.078 99.294,272.778 99.407,272.590 99.410 C 272.401 99.413,272.170 99.493,272.075 99.588 C 271.979 99.683,271.532 99.828,271.080 99.910 C 270.629 99.992,269.958 100.138,269.591 100.235 C 268.677 100.474,249.224 100.483,248.778 100.245 C 248.527 100.111,248.454 99.892,248.454 99.268 C 248.454 98.197,248.732 97.977,250.272 97.827 C 251.671 97.690,252.948 97.123,253.420 96.429 C 253.700 96.015,253.718 95.078,253.718 80.271 L 253.718 64.552 253.254 63.945 C 252.999 63.610,252.511 63.215,252.168 63.066 C 251.826 62.918,251.299 62.689,250.997 62.559 C 250.695 62.429,250.169 62.321,249.827 62.320 C 248.811 62.316,248.370 61.511,248.688 60.242 L 248.796 59.811 259.110 59.867 C 266.440 59.906,269.714 59.982,270.426 60.129 M260.160 62.638 C 260.044 62.856,259.983 65.415,259.983 70.161 L 259.983 77.354 260.429 77.465 C 261.046 77.620,265.927 77.403,266.288 77.204 C 266.450 77.115,266.884 76.912,267.251 76.753 C 268.567 76.184,270.340 74.310,270.344 73.483 C 270.344 73.364,270.468 73.041,270.619 72.765 C 270.839 72.362,270.896 71.739,270.905 69.591 L 270.917 66.917 270.356 65.796 C 269.638 64.361,269.037 63.726,267.828 63.120 C 266.256 62.333,260.517 61.972,260.160 62.638 M237.594 67.836 L 237.678 72.097 241.353 72.180 L 245.029 72.264 245.029 73.768 L 245.029 75.272 241.300 75.317 L 237.572 75.362 237.627 84.673 C 237.690 95.065,237.702 95.179,238.861 96.305 C 239.619 97.041,241.418 97.378,243.104 97.099 C 243.739 96.995,244.563 96.909,244.936 96.909 L 245.614 96.909 245.614 97.898 C 245.614 99.093,245.507 99.415,245.108 99.415 C 244.942 99.415,244.593 99.521,244.333 99.650 C 239.633 101.987,234.374 101.318,232.880 98.194 C 232.018 96.392,232.025 96.490,231.960 85.589 L 231.899 75.355 229.831 75.355 C 227.095 75.355,227.235 75.441,227.235 73.768 C 227.235 72.095,227.096 72.180,229.820 72.180 C 232.325 72.180,232.080 72.667,232.080 67.683 C 232.080 65.501,232.132 63.663,232.196 63.599 C 232.259 63.536,233.481 63.505,234.911 63.530 L 237.510 63.576 237.594 67.836 M77.099 66.495 L 77.527 66.658 77.527 80.775 C 77.527 94.561,77.520 94.896,77.204 95.065 C 77.023 95.162,75.802 95.238,74.436 95.238 C 73.070 95.238,71.849 95.162,71.668 95.065 C 71.333 94.886,71.142 67.229,71.473 66.733 C 71.743 66.329,76.168 66.141,77.099 66.495 M93.400 66.667 C 93.772 67.038,93.937 94.324,93.571 94.904 C 93.362 95.236,88.006 95.378,87.625 95.062 C 87.245 94.746,87.267 66.976,87.648 66.595 C 88.090 66.152,92.946 66.213,93.400 66.667 M45.346 66.764 C 45.678 67.631,45.444 94.894,45.102 95.077 C 44.547 95.374,39.630 95.224,39.428 94.904 C 39.177 94.506,39.213 66.952,39.465 66.700 C 39.802 66.364,45.214 66.422,45.346 66.764 M61.317 66.828 C 61.627 67.407,61.467 94.876,61.153 95.075 C 60.811 95.290,56.034 95.282,55.628 95.065 C 55.228 94.851,55.108 67.097,55.505 66.700 C 55.891 66.314,61.103 66.429,61.317 66.828 M160.340 71.587 C 160.787 71.720,161.350 71.869,161.590 71.919 C 162.832 72.174,164.845 74.033,165.579 75.601 C 166.520 77.615,166.633 79.022,166.502 87.154 C 166.340 97.268,166.472 97.744,169.436 97.744 C 170.849 97.744,170.927 97.801,170.927 98.829 C 170.927 99.789,170.659 100.108,169.650 100.350 C 169.388 100.412,169.070 100.545,168.945 100.645 C 168.538 100.966,164.598 100.885,163.879 100.541 C 162.792 100.020,161.671 98.768,161.338 97.703 C 161.196 97.247,160.886 97.356,159.987 98.177 C 158.812 99.250,157.308 100.244,156.677 100.363 C 156.382 100.419,156.059 100.528,155.960 100.605 C 155.861 100.682,155.297 100.818,154.707 100.908 C 154.117 100.998,153.362 101.120,153.029 101.180 C 150.827 101.578,147.422 99.766,146.383 97.644 C 146.163 97.194,145.902 96.675,145.803 96.491 C 145.075 95.131,145.609 91.155,146.761 89.354 C 147.647 87.968,150.856 85.714,151.943 85.714 C 152.071 85.714,152.391 85.602,152.654 85.465 C 152.917 85.327,153.260 85.215,153.415 85.214 C 153.571 85.213,153.744 85.138,153.801 85.046 C 153.858 84.954,154.020 84.879,154.162 84.879 C 154.303 84.879,154.694 84.760,155.029 84.614 C 155.365 84.469,155.886 84.243,156.188 84.113 C 156.490 83.983,156.880 83.876,157.055 83.876 C 157.230 83.876,157.417 83.807,157.469 83.722 C 157.522 83.637,157.790 83.518,158.065 83.458 C 158.341 83.397,158.772 83.250,159.024 83.131 C 159.276 83.011,159.802 82.777,160.192 82.611 L 160.902 82.308 160.900 80.294 C 160.895 75.938,159.303 73.839,156.024 73.861 C 153.425 73.878,152.430 74.541,152.698 76.076 C 152.996 77.789,152.967 79.293,152.626 79.826 C 151.285 81.923,148.142 81.919,147.146 79.819 C 145.699 76.768,148.573 73.044,153.376 71.745 C 153.878 71.609,154.323 71.464,154.365 71.422 C 154.566 71.221,159.576 71.360,160.340 71.587 M217.830 71.600 C 218.270 71.740,219.031 71.983,219.522 72.141 C 220.391 72.420,220.420 72.418,220.644 72.095 C 221.153 71.359,221.225 71.329,222.361 71.379 L 223.475 71.429 223.667 74.436 C 223.930 78.564,223.937 80.257,223.693 80.501 C 223.235 80.959,221.387 80.647,221.387 80.112 C 221.387 79.678,220.678 77.797,220.256 77.109 C 217.357 72.395,210.359 72.846,210.359 77.747 C 210.359 80.230,211.425 81.271,215.372 82.645 C 216.285 82.963,217.133 83.314,217.766 83.636 C 218.026 83.768,218.369 83.876,218.528 83.876 C 218.687 83.876,218.963 83.987,219.141 84.122 C 219.319 84.257,219.557 84.369,219.668 84.372 C 220.096 84.383,222.433 85.948,223.187 86.728 C 226.433 90.085,225.757 96.287,221.839 99.083 C 218.967 101.132,213.992 101.862,211.656 100.577 C 211.497 100.490,211.255 100.418,211.119 100.418 C 210.830 100.418,209.695 99.857,208.858 99.301 C 208.133 98.819,208.020 98.818,208.020 99.294 C 208.020 100.112,207.592 100.418,206.444 100.418 C 204.932 100.418,205.001 100.674,205.052 95.218 L 205.096 90.476 206.007 90.425 C 206.969 90.370,207.506 90.729,207.515 91.431 C 207.517 91.589,207.626 91.965,207.757 92.267 C 207.888 92.568,208.038 92.928,208.090 93.066 C 208.694 94.664,211.126 97.245,212.698 97.958 C 217.510 100.138,222.163 96.534,220.167 92.173 C 219.633 91.007,217.244 89.223,216.216 89.223 C 216.064 89.223,215.868 89.160,215.781 89.083 C 215.694 89.005,215.096 88.775,214.453 88.571 C 213.810 88.367,213.095 88.122,212.865 88.026 C 209.823 86.755,209.268 86.427,207.903 85.087 C 207.411 84.603,206.935 84.040,206.846 83.833 C 206.757 83.627,206.620 83.346,206.543 83.208 C 205.648 81.624,205.423 80.159,205.783 78.279 C 206.411 74.999,208.375 72.853,211.863 71.633 C 212.906 71.268,216.722 71.247,217.830 71.600 M298.997 71.530 C 299.365 71.627,299.889 71.749,300.162 71.801 C 301.454 72.046,303.547 73.781,304.266 75.201 C 305.341 77.326,305.347 77.384,305.347 87.147 L 305.347 96.015 305.824 96.641 C 306.086 96.985,306.425 97.305,306.576 97.351 C 306.727 97.397,306.981 97.504,307.141 97.589 C 307.300 97.675,307.850 97.744,308.363 97.744 C 310.535 97.744,310.654 99.832,308.511 100.346 C 308.241 100.411,307.915 100.547,307.786 100.650 C 307.170 101.137,303.241 100.878,302.314 100.288 C 301.519 99.783,300.585 98.795,300.585 98.459 C 300.585 98.381,300.445 98.042,300.275 97.708 L 299.964 97.099 299.147 97.936 C 298.697 98.397,298.130 98.878,297.886 99.007 C 297.641 99.135,297.334 99.348,297.202 99.480 C 296.852 99.830,295.707 100.418,295.376 100.418 C 295.219 100.418,295.050 100.484,294.999 100.566 C 294.949 100.647,294.550 100.761,294.112 100.820 C 293.675 100.878,292.860 101.011,292.301 101.114 C 285.645 102.351,281.507 93.181,286.500 88.257 C 287.410 87.359,290.188 85.714,290.795 85.714 C 290.920 85.714,291.238 85.602,291.501 85.465 C 291.765 85.327,292.107 85.215,292.262 85.214 C 292.418 85.213,292.591 85.138,292.648 85.046 C 292.705 84.954,292.879 84.878,293.034 84.878 C 293.189 84.877,293.532 84.764,293.795 84.627 C 294.058 84.490,294.411 84.378,294.579 84.378 C 294.747 84.378,294.927 84.308,294.980 84.223 C 295.032 84.139,295.305 84.019,295.585 83.957 C 295.866 83.895,296.298 83.740,296.544 83.611 C 296.791 83.482,297.087 83.377,297.204 83.376 C 297.320 83.376,297.545 83.305,297.705 83.219 C 298.382 82.854,299.148 82.540,299.361 82.540 C 300.691 82.540,299.724 76.423,298.165 74.969 C 297.010 73.892,294.286 73.435,293.005 74.103 C 292.742 74.240,292.434 74.353,292.321 74.353 C 292.208 74.353,291.982 74.500,291.819 74.680 C 291.510 75.022,291.509 74.956,291.838 78.175 C 291.954 79.310,291.160 80.869,290.465 80.869 C 290.356 80.869,290.167 80.989,290.045 81.136 C 289.665 81.593,287.371 81.404,286.797 80.868 C 283.753 78.027,286.566 73.456,292.481 71.634 C 293.480 71.327,297.958 71.255,298.997 71.530 M332.559 71.597 C 332.822 71.734,333.162 71.846,333.314 71.846 C 333.627 71.846,334.684 72.514,335.402 73.165 C 336.158 73.850,336.965 75.217,337.455 76.639 L 337.904 77.945 338.000 87.051 C 338.114 97.947,337.937 97.260,340.852 98.099 C 341.759 98.360,341.849 98.471,341.852 99.340 C 341.856 100.458,342.107 100.418,335.096 100.415 C 327.951 100.412,328.282 100.470,328.353 99.234 L 328.404 98.333 329.073 98.198 C 329.440 98.123,330.098 98.004,330.534 97.933 C 332.420 97.627,332.498 97.236,332.497 88.151 C 332.495 78.298,332.320 77.449,329.897 75.522 C 329.402 75.128,326.274 75.173,325.397 75.587 C 324.117 76.191,322.720 77.225,322.139 78.000 L 321.554 78.780 321.508 87.281 C 321.463 95.534,321.471 95.803,321.801 96.484 C 322.150 97.205,323.205 97.911,323.933 97.911 C 324.118 97.911,324.546 98.027,324.883 98.168 L 325.497 98.424 325.447 99.379 L 325.397 100.334 318.915 100.378 C 311.565 100.428,311.736 100.454,311.812 99.296 C 311.871 98.406,311.912 98.377,313.617 97.996 C 316.067 97.448,315.957 97.973,315.957 86.899 C 315.957 75.513,315.864 75.159,312.788 74.797 C 311.835 74.685,311.583 74.347,311.647 73.266 L 311.696 72.431 313.701 72.225 C 314.804 72.111,316.926 71.970,318.417 71.911 L 321.128 71.803 321.299 72.253 C 321.393 72.501,321.470 73.258,321.470 73.936 C 321.470 75.434,321.566 75.513,322.418 74.722 C 324.204 73.063,325.134 72.464,327.014 71.763 C 328.332 71.272,331.740 71.169,332.559 71.597 M181.728 72.139 C 181.807 72.299,181.909 77.356,181.955 83.375 L 182.038 94.319 182.420 95.085 C 183.602 97.461,186.479 98.416,188.591 97.134 C 188.794 97.010,189.067 96.909,189.197 96.909 C 189.514 96.909,191.707 94.864,192.138 94.167 C 192.541 93.515,192.679 78.168,192.295 76.775 C 191.930 75.455,191.030 74.854,189.415 74.854 C 187.829 74.854,187.502 74.694,187.368 73.851 C 187.163 72.567,187.372 72.414,189.501 72.290 C 190.543 72.230,191.846 72.105,192.398 72.014 C 192.949 71.923,194.361 71.848,195.535 71.847 L 197.669 71.846 197.832 72.275 C 197.932 72.537,197.995 76.936,197.995 83.634 C 197.995 97.127,197.964 96.961,200.562 97.498 C 202.026 97.800,202.172 97.930,202.172 98.931 C 202.172 99.840,202.213 99.814,200.501 99.996 C 199.996 100.050,198.943 100.161,198.162 100.244 C 195.914 100.482,192.889 100.457,192.676 100.200 C 192.576 100.080,192.473 99.324,192.446 98.518 L 192.398 97.054 191.729 97.664 C 191.362 97.999,190.779 98.465,190.434 98.699 C 190.090 98.934,189.808 99.179,189.808 99.244 C 189.808 99.309,189.527 99.506,189.184 99.681 C 188.841 99.857,188.459 100.094,188.336 100.209 C 188.214 100.324,187.983 100.418,187.824 100.418 C 187.665 100.418,187.463 100.490,187.375 100.578 C 187.287 100.666,186.464 100.860,185.546 101.008 C 181.926 101.592,178.688 100.164,177.419 97.424 C 176.381 95.183,176.395 95.325,176.288 85.798 L 176.190 77.109 175.770 76.358 C 175.258 75.443,174.326 74.887,173.266 74.865 C 172.159 74.841,172.072 74.737,172.130 73.502 L 172.180 72.431 173.935 72.300 C 174.900 72.228,176.028 72.105,176.441 72.026 C 177.972 71.736,181.568 71.812,181.728 72.139 M260.192 80.478 C 259.830 80.624,259.897 94.681,260.264 95.599 C 260.578 96.384,261.031 96.909,261.394 96.909 C 261.526 96.909,261.676 96.976,261.726 97.057 C 261.950 97.419,263.928 97.770,265.330 97.696 C 270.037 97.448,272.166 95.309,272.934 90.057 C 273.603 85.482,271.562 82.016,267.396 80.649 C 266.565 80.376,260.784 80.239,260.192 80.478 M160.397 85.205 C 160.257 85.287,159.655 85.516,159.060 85.713 C 154.807 87.124,152.444 88.895,151.701 91.228 C 149.881 96.947,155.276 99.818,159.816 95.548 L 160.902 94.526 160.902 89.786 C 160.902 87.179,160.846 85.048,160.777 85.051 C 160.708 85.054,160.537 85.123,160.397 85.205 M299.081 85.297 C 298.851 85.428,298.499 85.538,298.297 85.541 C 298.096 85.545,297.888 85.617,297.836 85.701 C 297.783 85.786,297.519 85.904,297.248 85.964 C 296.977 86.023,296.377 86.255,295.914 86.478 C 295.451 86.701,295.040 86.884,295.000 86.884 C 293.839 86.884,290.990 89.808,290.465 91.538 C 289.852 93.556,290.685 96.909,291.798 96.909 C 291.884 96.909,292.095 97.036,292.267 97.192 C 293.403 98.221,296.987 97.305,298.759 95.534 L 299.749 94.543 299.786 90.964 C 299.844 85.278,299.842 85.160,299.666 85.108 C 299.574 85.081,299.311 85.166,299.081 85.297 M95.830 99.979 C 97.852 101.261,98.016 104.416,96.137 105.854 L 95.489 106.349 66.069 106.349 L 36.649 106.349 36.021 105.870 C 33.750 104.138,34.318 100.374,36.946 99.749 C 38.323 99.421,95.301 99.644,95.830 99.979 " stroke="none" fill="#fbfbfb" fill-rule="evenodd"></path><path id="path1" d="M351.629 56.482 C 351.170 56.554,349.967 56.621,348.956 56.631 C 347.087 56.651,344.045 56.895,343.494 57.069 C 343.269 57.141,343.191 57.335,343.191 57.827 C 343.191 58.605,343.542 58.814,344.847 58.814 C 346.467 58.814,347.824 59.966,348.280 61.731 C 348.577 62.879,348.668 95.059,348.378 96.311 C 348.069 97.642,347.272 98.194,345.363 98.398 L 344.444 98.496 344.394 99.290 L 344.343 100.084 350.877 100.084 L 357.412 100.084 357.361 99.290 C 357.314 98.555,357.273 98.490,356.809 98.406 C 353.576 97.821,353.223 97.192,353.219 92.007 L 353.216 88.526 354.245 87.454 C 355.487 86.161,355.636 86.148,356.422 87.263 C 356.761 87.744,357.645 88.989,358.386 90.031 C 359.127 91.073,359.733 91.966,359.733 92.014 C 359.733 92.063,359.939 92.352,360.192 92.656 C 360.445 92.961,361.663 94.756,362.899 96.647 L 365.147 100.084 369.040 100.084 L 372.932 100.084 372.932 99.248 C 372.932 98.424,372.925 98.413,372.412 98.413 C 370.636 98.413,369.106 97.156,366.834 93.835 C 363.675 89.217,360.476 84.704,359.618 83.655 C 359.024 82.929,359.053 82.884,361.947 79.991 C 365.566 76.373,367.744 74.883,370.560 74.098 C 370.901 74.002,370.939 73.903,370.894 73.211 L 370.844 72.431 365.497 72.384 C 359.309 72.330,359.398 72.320,359.398 73.071 C 359.398 73.843,359.694 74.130,360.613 74.246 C 362.224 74.450,363.156 75.307,362.724 76.187 C 362.116 77.429,354.233 85.881,353.684 85.881 C 353.439 85.881,353.216 74.100,353.216 61.114 C 353.216 57.036,353.130 56.279,352.667 56.330 C 352.556 56.342,352.089 56.411,351.629 56.482 M112.785 60.777 C 112.788 61.804,112.883 61.926,113.784 62.056 C 116.044 62.384,117.559 63.204,117.991 64.332 C 118.428 65.473,118.431 95.090,117.994 96.223 C 117.535 97.414,116.797 97.882,115.038 98.097 C 112.884 98.361,112.782 98.416,112.782 99.328 L 112.782 100.084 121.053 100.084 L 129.323 100.084 129.323 99.338 C 129.323 98.445,129.186 98.346,127.557 98.069 C 126.066 97.815,124.754 97.197,124.273 96.523 L 123.893 95.990 123.893 88.388 L 123.893 80.785 127.068 80.735 C 132.594 80.647,133.881 81.602,134.845 86.508 L 135.050 87.552 135.946 87.552 L 136.842 87.552 136.842 79.783 L 136.842 72.013 135.931 72.013 C 134.959 72.013,134.674 72.385,134.671 73.659 C 134.670 73.875,134.566 74.288,134.439 74.578 C 134.312 74.868,134.109 75.364,133.987 75.680 C 133.200 77.736,131.221 78.531,126.901 78.527 C 125.430 78.526,124.133 78.464,124.017 78.391 C 123.851 78.286,123.816 76.545,123.850 70.248 L 123.893 62.239 129.287 62.195 L 134.681 62.151 135.603 62.587 C 136.426 62.976,138.346 64.677,138.346 65.017 C 138.346 65.088,138.522 65.336,138.738 65.569 C 139.170 66.035,140.434 68.495,140.608 69.208 C 140.762 69.844,141.064 70.038,141.801 69.977 L 142.439 69.925 142.484 64.954 L 142.528 59.983 127.655 59.983 L 112.782 59.983 112.785 60.777 M249.125 60.777 C 249.129 61.820,249.210 61.913,250.292 62.119 C 252.123 62.467,253.053 62.971,253.657 63.943 L 254.052 64.578 254.052 79.950 C 254.052 88.404,253.994 95.595,253.922 95.929 C 253.676 97.085,252.643 97.781,250.728 98.080 C 249.108 98.333,248.956 98.441,248.956 99.338 L 248.956 100.084 258.801 100.084 C 265.167 100.084,268.961 100.020,269.536 99.904 C 270.856 99.637,272.375 99.206,272.849 98.963 C 273.079 98.845,273.320 98.748,273.386 98.748 C 273.817 98.744,276.163 97.058,276.977 96.167 C 282.132 90.519,279.864 82.204,272.515 79.813 C 271.241 79.399,269.955 79.053,269.288 78.947 C 268.415 78.807,268.576 78.526,269.771 78.098 C 272.451 77.140,273.347 76.642,274.764 75.324 C 278.409 71.934,278.602 66.322,275.190 62.970 C 274.547 62.338,273.932 61.821,273.824 61.821 C 273.716 61.821,273.508 61.716,273.363 61.587 C 271.936 60.320,268.743 59.983,258.146 59.983 L 249.123 59.983 249.125 60.777 M267.154 62.484 C 272.741 64.527,272.969 74.371,267.490 76.987 C 265.652 77.865,260.684 78.343,259.926 77.716 C 259.561 77.413,259.495 62.413,259.858 62.266 C 260.531 61.995,266.285 62.167,267.154 62.484 M232.581 67.824 C 232.581 72.943,232.834 72.515,229.813 72.515 L 227.569 72.515 227.569 73.768 L 227.569 75.021 229.699 75.023 C 230.871 75.025,231.939 75.095,232.072 75.179 C 232.277 75.309,232.330 76.926,232.421 85.828 C 232.545 97.969,232.581 98.211,234.455 99.640 C 236.080 100.880,240.753 101.041,242.905 99.931 C 243.286 99.735,244.434 99.294,244.904 99.163 C 245.570 98.978,245.690 97.114,245.029 97.206 C 244.845 97.232,244.131 97.333,243.442 97.430 C 240.408 97.858,238.469 97.083,237.687 95.130 C 237.283 94.122,237.049 75.727,237.434 75.263 C 237.598 75.065,238.304 75.021,241.290 75.021 L 244.946 75.021 244.946 73.768 L 244.946 72.515 241.312 72.512 C 239.313 72.511,237.565 72.438,237.427 72.351 C 237.217 72.219,237.168 71.499,237.126 67.926 L 237.077 63.659 234.829 63.659 L 232.581 63.659 232.581 67.824 M155.472 71.590 C 155.380 71.618,154.854 71.733,154.302 71.844 C 149.346 72.844,146.069 76.625,147.533 79.655 C 148.945 82.576,152.930 80.938,152.508 77.611 C 152.153 74.808,152.153 74.853,152.485 74.592 C 154.589 72.938,158.091 73.093,159.686 74.910 C 160.833 76.217,161.130 77.192,161.205 79.900 L 161.272 82.356 160.732 82.685 C 160.434 82.865,159.242 83.365,158.082 83.794 C 156.922 84.223,155.736 84.680,155.447 84.810 C 155.157 84.940,154.813 85.046,154.681 85.046 C 154.549 85.046,154.396 85.092,154.340 85.148 C 154.284 85.204,153.628 85.463,152.882 85.724 C 148.853 87.134,146.978 88.790,146.044 91.760 C 145.802 92.532,145.787 95.282,146.023 95.722 C 146.120 95.903,146.199 96.210,146.199 96.405 C 146.199 97.368,148.048 99.483,149.524 100.209 C 150.407 100.642,150.587 100.668,152.715 100.663 C 155.991 100.655,157.449 100.057,160.001 97.674 C 161.032 96.711,161.329 96.741,161.799 97.856 C 162.843 100.334,165.722 101.314,168.894 100.273 C 170.504 99.744,170.593 99.670,170.593 98.848 L 170.593 98.126 169.277 98.036 C 167.616 97.922,166.933 97.545,166.315 96.400 C 166.023 95.858,166.004 95.280,166.001 86.884 C 165.999 78.944,165.966 77.836,165.712 76.974 C 165.065 74.774,163.829 73.316,161.820 72.380 C 160.696 71.856,156.358 71.317,155.472 71.590 M213.450 71.670 C 213.083 71.745,212.444 71.879,212.030 71.966 C 210.179 72.358,207.928 74.046,207.044 75.707 C 205.339 78.909,205.825 82.494,208.305 85.012 C 209.256 85.978,212.294 87.719,213.027 87.719 C 213.124 87.719,213.335 87.790,213.494 87.877 C 213.654 87.964,214.273 88.192,214.871 88.384 C 216.143 88.791,216.267 88.843,217.762 89.577 C 221.272 91.303,222.207 95.091,219.723 97.519 C 217.941 99.262,214.157 99.373,211.678 97.755 C 210.451 96.955,208.354 94.680,208.354 94.150 C 208.354 94.074,208.256 93.893,208.135 93.747 C 208.014 93.602,207.780 93.145,207.615 92.732 C 206.856 90.834,206.808 90.752,206.399 90.650 C 205.260 90.364,205.282 90.260,205.400 95.371 C 205.516 100.440,205.478 100.284,206.600 100.211 C 207.208 100.171,207.302 100.100,207.649 99.415 C 208.086 98.554,208.221 98.541,209.387 99.254 C 213.280 101.634,219.059 101.184,222.259 98.251 C 226.971 93.934,225.263 86.918,218.881 84.375 C 218.375 84.174,217.811 83.943,217.627 83.863 C 216.983 83.581,214.626 82.707,214.510 82.707 C 214.181 82.707,212.028 81.593,211.444 81.121 C 209.664 79.680,209.430 76.719,210.963 75.022 C 214.002 71.658,220.873 74.464,221.661 79.390 C 221.783 80.156,222.275 80.456,223.107 80.273 L 223.599 80.165 223.473 78.804 C 223.403 78.056,223.300 76.128,223.244 74.520 L 223.141 71.596 222.355 71.545 C 221.598 71.496,221.554 71.519,221.142 72.172 C 220.642 72.963,220.723 72.947,219.549 72.495 C 217.675 71.774,214.824 71.388,213.450 71.670 M293.150 71.832 C 287.949 73.026,284.901 76.653,286.466 79.783 C 287.272 81.394,289.555 81.550,290.914 80.087 C 291.515 79.439,291.582 78.868,291.307 76.766 C 291.042 74.748,291.081 74.617,292.111 74.103 C 294.960 72.682,298.074 73.562,299.401 76.163 C 300.247 77.822,300.605 81.839,299.958 82.413 C 299.640 82.695,297.944 83.542,297.697 83.542 C 297.613 83.542,297.307 83.648,297.018 83.778 C 296.728 83.907,295.815 84.253,294.987 84.547 C 294.160 84.840,293.333 85.141,293.150 85.214 C 292.966 85.287,292.327 85.516,291.729 85.723 C 286.401 87.564,284.225 90.531,284.859 95.091 C 285.378 98.820,287.612 100.676,291.562 100.659 C 294.906 100.644,296.341 100.062,298.870 97.694 C 300.030 96.608,300.137 96.610,300.630 97.724 C 301.781 100.329,304.606 101.328,307.798 100.259 C 309.361 99.736,309.440 99.667,309.440 98.825 L 309.440 98.079 308.647 98.075 C 307.042 98.066,306.094 97.664,305.357 96.678 C 305.022 96.229,305.010 95.969,304.914 86.997 C 304.798 76.133,304.744 75.816,302.679 73.734 C 300.878 71.920,296.539 71.054,293.150 71.832 M329.240 71.608 C 329.056 71.649,328.492 71.768,327.987 71.872 C 326.064 72.265,324.465 73.236,322.454 75.230 C 321.149 76.524,320.969 76.355,320.969 73.832 C 320.969 71.808,321.087 71.884,318.394 72.175 C 317.283 72.295,315.434 72.439,314.286 72.496 L 312.197 72.598 312.147 73.368 C 312.092 74.218,312.282 74.376,313.639 74.611 C 314.403 74.744,315.366 75.528,315.794 76.367 C 316.332 77.421,316.304 96.326,315.764 97.201 C 315.338 97.891,314.543 98.276,313.283 98.403 L 312.364 98.496 312.314 99.268 C 312.270 99.953,312.308 100.052,312.648 100.143 C 313.233 100.300,324.697 100.265,324.948 100.106 C 325.421 99.806,325.126 98.508,324.561 98.406 C 322.653 98.061,321.806 97.537,321.244 96.352 C 320.790 95.395,320.831 79.452,321.290 78.565 C 323.011 75.238,328.363 73.702,330.843 75.825 C 332.715 77.428,332.856 78.330,332.798 88.317 L 332.749 96.685 332.294 97.281 C 331.805 97.922,330.690 98.413,329.725 98.413 C 328.806 98.413,328.655 98.544,328.655 99.342 C 328.655 100.300,328.447 100.274,335.589 100.215 L 341.437 100.167 341.437 99.332 C 341.437 98.566,341.402 98.492,341.019 98.444 C 340.390 98.366,339.158 97.893,338.619 97.523 C 337.683 96.878,337.678 96.825,337.678 87.783 C 337.678 78.058,337.633 77.618,336.408 75.116 C 335.229 72.707,331.807 71.033,329.240 71.608 M178.697 72.187 C 178.237 72.262,176.696 72.375,175.272 72.439 C 172.461 72.564,172.264 72.636,172.264 73.537 C 172.264 74.183,172.613 74.456,173.605 74.588 C 174.675 74.730,175.610 75.304,176.128 76.138 L 176.525 76.775 176.633 85.297 C 176.780 96.817,177.204 98.410,180.565 100.097 L 181.704 100.668 184.127 100.664 C 187.246 100.659,188.760 100.009,191.350 97.562 C 192.782 96.209,192.880 96.260,192.982 98.414 L 193.066 100.167 194.737 100.122 C 195.656 100.097,196.958 100.003,197.631 99.913 C 198.304 99.823,199.407 99.749,200.082 99.749 C 201.735 99.749,201.838 99.696,201.838 98.832 C 201.838 98.065,201.647 97.919,200.636 97.914 C 200.389 97.912,200.140 97.836,200.084 97.744 C 200.027 97.652,199.840 97.577,199.668 97.577 C 199.270 97.577,198.241 96.613,197.960 95.976 C 197.793 95.600,197.725 92.847,197.661 83.895 C 197.563 70.356,197.885 71.846,195.123 72.157 C 194.083 72.274,192.105 72.413,190.727 72.465 C 187.940 72.570,187.803 72.620,187.803 73.528 C 187.803 74.321,187.782 74.309,189.553 74.510 C 191.285 74.707,191.901 75.082,192.506 76.311 L 192.899 77.109 192.948 85.247 C 193.005 94.679,193.132 93.925,191.178 95.768 C 187.480 99.257,182.827 98.461,181.729 94.152 C 181.628 93.753,181.521 89.171,181.465 82.790 L 181.370 72.097 180.451 72.074 C 179.946 72.061,179.156 72.112,178.697 72.187 M266.166 80.117 C 272.796 81.113,275.652 88.660,271.738 94.839 C 269.342 98.623,261.554 99.286,259.922 95.845 C 259.562 95.087,259.502 80.482,259.858 80.253 C 260.035 80.140,261.238 80.034,263.953 79.894 C 264.252 79.879,265.248 79.979,266.166 80.117 M161.197 89.752 L 161.242 94.541 160.612 95.280 C 155.865 100.856,148.276 96.647,151.677 90.324 C 152.604 88.601,156.603 85.714,158.064 85.714 C 158.216 85.714,158.391 85.663,158.453 85.601 C 158.691 85.363,160.173 84.917,160.652 84.939 L 161.153 84.962 161.197 89.752 M300.211 89.699 L 300.256 94.435 299.042 95.648 C 296.033 98.654,291.902 98.702,290.362 95.749 C 289.894 94.852,289.798 91.982,290.207 91.128 C 290.335 90.861,290.561 90.392,290.708 90.084 C 291.494 88.451,294.117 86.678,297.406 85.556 C 298.001 85.353,298.603 85.118,298.743 85.034 C 298.883 84.949,299.261 84.899,299.582 84.921 L 300.167 84.962 300.211 89.699 " stroke="none" fill="#090909" fill-rule="evenodd"></path><path id="path2" d="M62.301 38.118 C 58.156 40.631,57.643 40.936,57.546 40.936 C 57.501 40.936,57.260 41.076,57.011 41.247 C 56.303 41.734,48.316 46.447,43.693 49.106 C 42.222 49.952,40.906 50.713,40.769 50.798 C 40.631 50.882,39.781 51.405,38.881 51.959 C 37.981 52.512,37.214 52.966,37.176 52.966 C 37.080 52.966,33.262 55.276,32.703 55.673 C 31.033 56.857,31.132 59.782,32.887 61.108 L 33.610 61.654 50.848 61.630 C 60.330 61.617,67.786 61.552,67.419 61.486 C 66.830 61.379,66.796 61.349,67.133 61.237 C 67.486 61.120,67.495 61.088,67.249 60.816 C 67.011 60.553,66.983 59.361,66.986 49.601 C 66.988 43.595,66.966 38.173,66.936 37.552 C 66.883 36.450,67.205 35.975,67.586 36.591 C 67.642 36.683,67.774 36.759,67.878 36.759 C 67.982 36.759,67.921 36.648,67.743 36.513 C 66.763 35.772,65.610 36.112,62.301 38.118 M74.854 40.926 C 75.175 41.202,75.537 41.430,75.657 41.432 C 76.024 41.440,75.730 41.157,74.980 40.780 L 74.269 40.423 74.854 40.926 M76.023 41.608 C 76.023 41.754,76.672 42.014,76.776 41.910 C 76.808 41.878,76.652 41.765,76.429 41.660 C 76.206 41.554,76.023 41.531,76.023 41.608 M77.281 42.326 C 78.150 42.908,78.911 43.320,78.808 43.153 C 78.745 43.051,78.346 42.773,77.922 42.536 C 77.105 42.080,76.729 41.956,77.281 42.326 M79.198 43.525 C 79.312 43.663,79.524 43.776,79.668 43.776 C 79.878 43.776,79.866 43.727,79.606 43.531 C 79.182 43.210,78.933 43.207,79.198 43.525 M80.141 44.028 C 80.193 44.165,80.302 44.277,80.383 44.277 C 80.582 44.277,82.275 45.317,82.345 45.482 C 82.375 45.555,82.563 45.613,82.762 45.611 C 83.023 45.609,82.890 45.478,82.289 45.143 C 81.830 44.887,81.137 44.476,80.749 44.229 C 80.289 43.935,80.078 43.866,80.141 44.028 M83.375 45.935 C 83.375 46.034,83.482 46.115,83.612 46.115 C 83.742 46.115,83.874 46.172,83.904 46.241 C 83.969 46.386,85.298 47.118,85.497 47.117 C 85.570 47.117,85.368 46.959,85.046 46.765 C 84.724 46.572,84.217 46.266,83.918 46.084 C 83.619 45.902,83.375 45.835,83.375 45.935 M91.228 50.531 C 91.228 50.646,92.278 51.136,92.357 51.057 C 92.396 51.018,92.200 50.867,91.920 50.722 C 91.399 50.453,91.228 50.406,91.228 50.531 M94.236 52.285 C 94.236 52.437,95.571 53.190,95.668 53.093 C 95.699 53.062,95.389 52.835,94.980 52.588 C 94.570 52.341,94.236 52.204,94.236 52.285 M101.089 57.425 C 101.087 57.627,101.161 57.838,101.253 57.895 C 101.466 58.026,101.466 57.639,101.253 57.310 C 101.121 57.106,101.091 57.128,101.089 57.425 M74.144 61.612 C 76.280 61.639,79.777 61.639,81.913 61.612 C 84.050 61.586,82.302 61.564,78.028 61.564 C 73.755 61.564,72.007 61.586,74.144 61.612 M87.601 61.611 C 88.225 61.643,89.202 61.643,89.773 61.611 C 90.344 61.578,89.833 61.552,88.638 61.552 C 87.444 61.552,86.977 61.579,87.601 61.611 M97.285 61.609 C 97.629 61.645,98.193 61.645,98.538 61.609 C 98.883 61.573,98.601 61.543,97.911 61.543 C 97.222 61.543,96.940 61.573,97.285 61.609 M39.933 66.716 L 39.515 66.927 39.473 80.674 C 39.444 89.960,39.486 94.526,39.604 94.746 C 39.816 95.142,44.697 95.253,45.079 94.871 C 45.477 94.473,45.357 66.887,44.957 66.673 C 44.485 66.420,40.449 66.455,39.933 66.716 M55.742 66.812 C 55.414 67.175,55.320 94.141,55.645 94.748 C 55.805 95.046,56.018 95.071,58.406 95.071 L 60.994 95.071 61.157 94.642 C 61.455 93.857,61.371 67.084,61.069 66.834 C 60.620 66.461,56.077 66.443,55.742 66.812 M89.975 66.667 L 87.803 66.750 87.799 71.637 L 87.795 76.525 87.843 71.679 L 87.891 66.833 90.520 66.875 L 93.150 66.917 93.235 80.535 L 93.320 94.152 93.360 80.597 C 93.392 69.913,93.356 67.007,93.191 66.877 C 92.860 66.615,92.292 66.578,89.975 66.667 M72.025 66.792 C 72.056 67.118,72.324 67.576,72.336 67.321 C 72.350 66.994,72.324 66.998,74.799 66.902 C 75.956 66.856,76.873 66.889,76.927 66.976 C 76.980 67.061,77.025 73.398,77.029 81.059 C 77.033 89.991,77.093 94.898,77.195 94.737 C 77.448 94.340,77.413 67.121,77.160 66.867 C 76.936 66.644,72.004 66.571,72.025 66.792 M71.592 81.036 C 71.592 88.434,71.612 91.460,71.637 87.761 C 71.662 84.062,71.662 78.010,71.637 74.311 C 71.612 70.612,71.592 73.638,71.592 81.036 M87.778 79.365 C 87.778 80.146,87.806 80.466,87.842 80.075 C 87.877 79.685,87.877 79.046,87.842 78.655 C 87.806 78.264,87.778 78.584,87.778 79.365 M87.800 88.429 L 87.803 94.987 89.056 94.998 L 90.309 95.009 89.100 94.949 L 87.890 94.890 87.844 88.381 L 87.797 81.871 87.800 88.429 M72.473 95.025 C 72.772 95.062,73.260 95.062,73.559 95.025 C 73.858 94.988,73.613 94.957,73.016 94.957 C 72.419 94.957,72.174 94.988,72.473 95.025 M74.812 95.026 C 75.203 95.061,75.842 95.061,76.232 95.026 C 76.623 94.991,76.303 94.962,75.522 94.962 C 74.741 94.962,74.421 94.991,74.812 95.026 M91.103 95.026 C 91.447 95.062,92.011 95.062,92.356 95.026 C 92.701 94.990,92.419 94.960,91.729 94.960 C 91.040 94.960,90.758 94.990,91.103 95.026 M36.701 99.993 C 34.254 100.866,34.113 104.867,36.491 105.947 C 37.152 106.247,38.206 106.257,66.082 106.221 C 81.980 106.201,88.697 106.164,81.008 106.140 L 67.029 106.097 67.000 103.466 C 66.985 102.019,66.960 100.647,66.945 100.418 L 66.917 100.000 73.601 99.914 C 77.277 99.866,70.622 99.813,58.814 99.796 C 40.986 99.769,37.234 99.803,36.701 99.993 M86.435 99.874 C 87.980 99.902,90.461 99.902,91.949 99.874 C 93.436 99.847,92.172 99.824,89.140 99.824 C 86.107 99.824,84.890 99.847,86.435 99.874 " stroke="none" fill="#db8d24" fill-rule="evenodd"></path><path id="path3" d="M66.936 37.552 C 66.966 38.173,66.988 43.595,66.986 49.601 C 66.983 59.361,67.011 60.553,67.249 60.816 C 67.495 61.088,67.487 61.118,67.140 61.209 C 66.934 61.263,66.808 61.350,66.861 61.403 C 67.073 61.615,99.064 61.571,99.277 61.358 C 99.390 61.245,99.580 61.153,99.699 61.153 C 100.526 61.153,101.892 58.290,101.253 57.895 C 101.161 57.838,101.086 57.598,101.086 57.362 C 101.086 56.724,100.524 55.934,99.802 55.557 C 99.451 55.374,99.127 55.176,99.081 55.116 C 99.035 55.056,98.678 54.841,98.287 54.638 C 97.896 54.434,97.534 54.200,97.483 54.118 C 97.432 54.036,97.245 53.968,97.066 53.968 C 96.888 53.968,96.742 53.906,96.742 53.831 C 96.742 53.755,96.178 53.411,95.489 53.066 C 94.799 52.720,94.236 52.369,94.236 52.284 C 94.236 52.200,94.120 52.130,93.980 52.130 C 93.839 52.130,93.681 52.018,93.628 51.880 C 93.575 51.742,93.352 51.629,93.132 51.629 C 92.912 51.629,92.732 51.556,92.732 51.466 C 92.732 51.377,92.393 51.149,91.980 50.961 C 91.566 50.772,91.228 50.545,91.228 50.455 C 91.228 50.366,91.081 50.292,90.902 50.292 C 90.723 50.292,90.516 50.198,90.443 50.084 C 90.369 49.969,90.046 49.732,89.724 49.557 C 89.403 49.382,88.726 49.015,88.221 48.742 C 87.715 48.468,87.277 48.179,87.246 48.099 C 87.215 48.019,87.017 47.953,86.804 47.953 C 86.592 47.953,86.375 47.840,86.322 47.703 C 86.269 47.565,86.111 47.452,85.970 47.452 C 85.829 47.452,85.713 47.396,85.711 47.327 C 85.709 47.258,85.297 47.013,84.795 46.784 C 84.294 46.554,83.882 46.310,83.880 46.241 C 83.878 46.172,83.764 46.115,83.626 46.115 C 83.488 46.115,83.375 46.003,83.375 45.865 C 83.375 45.699,83.210 45.614,82.888 45.614 C 82.620 45.614,82.375 45.555,82.345 45.482 C 82.275 45.317,80.582 44.277,80.383 44.277 C 80.302 44.277,80.193 44.165,80.140 44.027 C 80.087 43.889,79.896 43.776,79.714 43.776 C 79.533 43.776,79.343 43.708,79.291 43.625 C 79.240 43.541,78.709 43.188,78.112 42.838 C 77.515 42.489,77.026 42.143,77.026 42.071 C 77.026 41.998,76.881 41.938,76.704 41.938 C 76.526 41.938,76.269 41.825,76.131 41.688 C 75.993 41.550,75.792 41.437,75.683 41.437 C 75.480 41.437,74.144 40.450,74.046 40.227 C 74.016 40.157,73.850 40.100,73.679 40.100 C 73.507 40.100,73.307 40.006,73.233 39.891 C 73.071 39.639,72.072 39.098,71.767 39.098 C 71.647 39.098,71.505 38.985,71.452 38.847 C 71.399 38.709,71.240 38.596,71.100 38.596 C 70.959 38.596,70.844 38.521,70.844 38.429 C 70.844 38.338,70.734 38.262,70.601 38.262 C 70.467 38.262,70.072 38.067,69.723 37.828 C 69.375 37.589,68.939 37.325,68.755 37.241 C 68.571 37.157,68.195 36.944,67.920 36.768 C 67.002 36.183,66.876 36.284,66.936 37.552 M71.679 80.862 L 71.679 94.889 72.891 94.938 C 75.894 95.060,77.001 94.926,77.058 94.433 C 77.086 94.187,77.072 87.895,77.026 80.451 L 76.942 66.917 75.021 66.931 C 72.689 66.948,72.351 66.998,72.337 67.329 C 72.331 67.484,72.266 67.436,72.175 67.210 C 71.719 66.074,71.679 67.162,71.679 80.862 M87.867 71.723 C 87.839 78.647,87.906 94.811,87.962 94.868 C 88.035 94.941,93.104 94.921,93.178 94.847 C 93.266 94.759,93.247 67.159,93.159 67.016 C 93.121 66.955,91.919 66.890,90.488 66.871 L 87.886 66.837 87.867 71.723 M66.897 100.159 C 66.846 100.293,66.846 100.469,66.897 100.552 C 66.948 100.635,66.999 101.917,67.009 103.401 L 67.029 106.099 80.946 106.099 C 95.738 106.099,95.572 106.107,96.267 105.319 C 97.009 104.476,97.516 102.611,97.076 102.339 C 96.984 102.282,96.909 102.095,96.909 101.923 C 96.909 101.441,96.201 100.434,95.781 100.318 C 95.574 100.261,95.405 100.147,95.405 100.065 C 95.405 99.784,67.006 99.877,66.897 100.159 " stroke="none" fill="#ca7c2a" fill-rule="evenodd"></path><path id="path4" d="M65.915 36.092 C 65.505 36.195,65.590 36.221,66.377 36.238 C 67.419 36.259,66.997 36.043,73.150 39.710 C 74.281 40.384,75.252 40.936,75.309 40.936 C 75.366 40.936,75.531 41.043,75.676 41.175 C 75.822 41.306,76.128 41.516,76.358 41.640 C 76.587 41.765,77.214 42.127,77.751 42.446 C 78.288 42.764,78.964 43.163,79.255 43.333 C 79.852 43.682,81.595 44.718,84.294 46.326 C 86.307 47.525,89.700 49.498,90.073 49.687 C 90.324 49.813,91.003 50.212,94.783 52.453 C 96.090 53.228,97.799 54.240,98.580 54.702 C 101.964 56.703,102.459 59.744,99.666 61.375 C 99.415 61.522,91.100 61.592,66.500 61.655 L 33.668 61.740 66.363 61.780 C 86.298 61.805,99.219 61.760,99.469 61.665 C 102.555 60.492,102.383 56.597,99.165 54.778 C 98.521 54.414,96.980 53.513,95.739 52.775 C 94.499 52.037,93.070 51.202,92.565 50.919 C 91.791 50.485,90.199 49.553,89.223 48.961 C 89.085 48.878,87.399 47.884,85.476 46.752 C 83.552 45.621,81.635 44.491,81.215 44.241 C 80.795 43.991,80.153 43.624,79.788 43.425 C 79.423 43.226,78.934 42.933,78.702 42.773 C 78.243 42.458,73.900 39.859,73.197 39.479 C 72.960 39.351,72.540 39.102,72.264 38.926 C 71.988 38.751,71.537 38.482,71.261 38.330 C 70.986 38.178,70.108 37.652,69.310 37.161 C 68.019 36.367,67.600 36.185,66.667 36.013 C 66.529 35.987,66.190 36.023,65.915 36.092 M60.735 38.870 C 59.173 39.835,57.782 40.670,57.644 40.727 C 57.506 40.783,57.206 40.955,56.976 41.108 C 56.746 41.261,55.261 42.154,53.676 43.091 C 52.091 44.028,50.794 44.833,50.794 44.880 C 50.794 44.927,50.850 44.936,50.919 44.899 C 51.130 44.788,56.530 41.569,56.976 41.290 C 57.206 41.145,57.657 40.886,57.978 40.712 C 58.567 40.395,61.760 38.460,63.158 37.573 C 63.571 37.311,63.835 37.101,63.743 37.106 C 63.651 37.111,62.297 37.905,60.735 38.870 M49.329 45.625 C 48.307 46.266,45.849 47.705,42.566 49.585 C 41.670 50.098,40.969 50.549,41.008 50.587 C 41.046 50.626,42.155 50.024,43.471 49.251 C 44.788 48.477,46.487 47.490,47.248 47.056 C 49.065 46.021,50.753 44.946,50.543 44.959 C 50.451 44.965,49.905 45.264,49.329 45.625 M38.897 51.754 C 37.913 52.368,37.133 52.895,37.164 52.925 C 37.240 53.002,40.569 50.981,40.691 50.785 C 40.838 50.545,40.815 50.558,38.897 51.754 M34.686 54.215 C 32.210 55.738,31.830 56.095,31.468 57.243 C 30.968 58.831,31.632 60.740,32.916 61.404 C 33.680 61.799,33.670 61.699,32.887 61.108 C 31.004 59.685,31.039 56.810,32.956 55.508 C 33.347 55.242,34.401 54.590,35.297 54.058 C 36.193 53.527,36.926 53.063,36.926 53.029 C 36.926 52.871,36.544 53.073,34.686 54.215 M351.211 56.173 C 350.338 56.238,348.174 56.357,346.402 56.438 C 344.630 56.519,343.103 56.663,343.010 56.756 C 342.735 57.031,342.891 58.887,343.191 58.927 C 343.329 58.946,343.945 59.008,344.560 59.066 C 345.938 59.197,347.036 59.855,347.584 60.881 L 347.953 61.571 347.999 78.914 C 348.053 99.461,348.320 97.387,345.530 98.057 L 344.277 98.358 344.277 99.346 L 344.277 100.334 350.627 100.381 C 358.236 100.436,357.728 100.512,357.728 99.331 C 357.728 98.372,357.230 97.911,356.194 97.911 C 355.687 97.911,354.511 97.316,354.052 96.826 L 353.634 96.381 353.634 92.411 L 353.634 88.440 354.434 87.662 C 355.498 86.628,355.484 86.622,356.907 88.641 C 358.696 91.180,361.039 94.453,361.235 94.688 C 361.328 94.799,361.404 94.933,361.404 94.985 C 361.404 95.038,361.817 95.684,362.322 96.422 C 362.828 97.160,363.241 97.797,363.241 97.836 C 363.241 97.978,364.789 100.170,364.974 100.290 C 365.312 100.510,373.008 100.442,373.233 100.217 C 374.045 99.405,373.292 98.201,371.795 97.918 C 370.340 97.642,369.441 96.943,368.226 95.146 C 367.653 94.298,365.286 90.933,364.368 89.661 C 363.978 89.121,363.369 88.257,363.015 87.740 C 362.660 87.223,362.303 86.775,362.221 86.745 C 362.139 86.714,362.072 86.619,362.072 86.534 C 362.072 86.449,361.546 85.666,360.902 84.795 C 359.399 82.760,359.321 83.027,362.281 80.109 C 365.367 77.065,367.808 75.260,369.424 74.825 C 369.653 74.763,370.142 74.601,370.510 74.465 L 371.178 74.218 371.228 73.198 C 371.275 72.232,371.254 72.169,370.841 72.012 C 370.163 71.755,360.088 71.799,359.566 72.062 C 358.774 72.460,358.934 74.353,359.758 74.353 C 360.240 74.353,362.138 75.025,362.278 75.246 C 362.654 75.837,362.339 76.437,360.729 78.195 C 359.325 79.729,356.182 83.092,355.056 84.266 L 353.801 85.574 353.718 71.233 C 353.646 58.956,353.599 56.839,353.387 56.520 C 353.066 56.035,353.069 56.036,351.211 56.173 M353.043 56.631 C 353.149 56.829,353.216 58.566,353.216 61.114 C 353.216 74.100,353.439 85.881,353.684 85.881 C 354.233 85.881,362.116 77.429,362.724 76.187 C 363.156 75.307,362.224 74.450,360.613 74.246 C 359.694 74.130,359.398 73.843,359.398 73.071 C 359.398 72.320,359.309 72.330,365.497 72.384 L 370.844 72.431 370.894 73.211 C 370.939 73.903,370.901 74.002,370.560 74.098 C 367.744 74.883,365.566 76.373,361.947 79.991 C 359.053 82.884,359.024 82.929,359.618 83.655 C 360.476 84.704,363.675 89.217,366.834 93.835 C 369.106 97.156,370.636 98.413,372.412 98.413 C 372.925 98.413,372.932 98.424,372.932 99.248 L 372.932 100.084 369.040 100.084 L 365.147 100.084 362.899 96.647 C 361.663 94.756,360.445 92.961,360.192 92.656 C 359.939 92.352,359.733 92.063,359.733 92.014 C 359.733 91.966,359.127 91.073,358.386 90.031 C 357.645 88.989,356.761 87.744,356.422 87.263 C 355.636 86.148,355.487 86.161,354.245 87.454 L 353.216 88.526 353.219 92.007 C 353.223 97.192,353.576 97.821,356.809 98.406 C 357.273 98.490,357.314 98.555,357.361 99.290 L 357.412 100.084 350.877 100.084 L 344.343 100.084 344.394 99.290 L 344.444 98.496 345.363 98.398 C 347.272 98.194,348.069 97.642,348.378 96.311 C 348.668 95.059,348.577 62.879,348.280 61.731 C 347.824 59.966,346.467 58.814,344.847 58.814 C 343.542 58.814,343.191 58.605,343.191 57.827 C 343.191 57.335,343.269 57.141,343.494 57.069 C 344.045 56.895,347.087 56.651,348.956 56.631 C 349.967 56.621,351.170 56.554,351.629 56.482 C 352.089 56.411,352.556 56.342,352.667 56.330 C 352.779 56.317,352.948 56.453,353.043 56.631 M112.467 59.967 C 112.161 60.162,112.293 61.955,112.630 62.168 C 112.759 62.250,113.186 62.319,113.578 62.320 C 113.970 62.321,114.421 62.392,114.580 62.477 C 114.740 62.563,115.284 62.757,115.789 62.909 C 116.310 63.065,116.944 63.411,117.251 63.706 L 117.794 64.226 117.788 80.275 L 117.782 96.324 117.413 96.764 C 116.814 97.475,116.108 97.727,114.378 97.849 C 112.525 97.979,112.281 98.155,112.281 99.363 C 112.281 100.456,112.014 100.426,121.170 100.378 L 129.407 100.334 129.458 99.349 C 129.520 98.140,129.432 98.045,128.021 97.802 C 123.999 97.107,124.116 97.406,124.180 87.970 L 124.227 80.952 126.901 80.904 C 129.553 80.855,130.590 80.998,131.778 81.573 C 132.224 81.789,133.500 83.032,133.500 83.251 C 133.500 83.337,133.602 83.645,133.726 83.935 C 134.211 85.069,134.505 86.163,134.504 86.836 C 134.503 87.794,136.263 88.399,136.976 87.686 C 137.354 87.308,137.254 72.135,136.871 71.789 C 136.081 71.074,134.503 71.624,134.503 72.613 C 134.503 74.483,133.156 76.821,131.654 77.560 C 130.415 78.169,124.758 78.484,124.330 77.967 C 124.193 77.803,124.152 75.594,124.184 70.073 L 124.227 62.406 128.906 62.411 C 133.350 62.415,135.586 62.597,135.836 62.976 C 135.884 63.048,136.090 63.196,136.295 63.304 C 137.254 63.808,139.417 67.094,140.104 69.089 L 140.449 70.092 141.695 70.092 L 142.941 70.092 142.941 64.996 L 142.941 59.900 127.820 59.860 C 119.337 59.838,112.597 59.885,112.467 59.967 M248.688 60.242 C 248.370 61.511,248.811 62.316,249.827 62.320 C 250.169 62.321,250.695 62.429,250.997 62.559 C 251.299 62.689,251.826 62.918,252.168 63.066 C 252.511 63.215,252.999 63.610,253.254 63.945 L 253.718 64.552 253.718 80.271 C 253.718 95.078,253.700 96.015,253.420 96.429 C 252.948 97.123,251.671 97.690,250.272 97.827 C 248.732 97.977,248.454 98.197,248.454 99.268 C 248.454 99.892,248.527 100.111,248.778 100.245 C 249.224 100.483,268.677 100.474,269.591 100.235 C 269.958 100.138,270.629 99.992,271.080 99.910 C 271.532 99.828,271.979 99.683,272.075 99.588 C 272.170 99.493,272.401 99.413,272.590 99.410 C 272.778 99.407,273.078 99.294,273.257 99.159 C 273.435 99.024,273.691 98.914,273.826 98.914 C 273.960 98.914,274.317 98.726,274.618 98.496 C 274.919 98.266,275.252 98.079,275.357 98.079 C 276.121 98.079,279.532 93.752,279.532 92.784 C 279.532 92.608,279.604 92.392,279.692 92.304 C 280.487 91.510,280.047 86.451,279.024 84.608 C 278.086 82.921,275.191 80.220,274.294 80.195 C 274.188 80.192,273.956 80.079,273.778 79.945 C 273.599 79.810,273.326 79.699,273.170 79.699 C 273.014 79.699,272.672 79.587,272.408 79.450 C 272.145 79.312,271.765 79.200,271.564 79.199 C 271.362 79.198,271.157 79.133,271.108 79.053 C 271.059 78.973,270.622 78.852,270.137 78.785 L 269.256 78.661 270.343 78.251 C 271.578 77.784,273.226 77.032,273.350 76.878 C 273.396 76.821,273.652 76.662,273.918 76.525 C 278.663 74.074,279.410 65.894,275.208 62.406 C 274.375 61.715,272.456 60.652,272.042 60.652 C 271.879 60.652,271.675 60.580,271.587 60.493 C 271.109 60.016,269.224 59.921,259.110 59.867 L 248.796 59.811 248.688 60.242 M142.484 64.954 L 142.439 69.925 141.801 69.977 C 141.064 70.038,140.762 69.844,140.608 69.208 C 140.434 68.495,139.170 66.035,138.738 65.569 C 138.522 65.336,138.346 65.088,138.346 65.017 C 138.346 64.677,136.426 62.976,135.603 62.587 L 134.681 62.151 129.287 62.195 L 123.893 62.239 123.850 70.248 C 123.816 76.545,123.851 78.286,124.017 78.391 C 124.133 78.464,125.430 78.526,126.901 78.527 C 131.221 78.531,133.200 77.736,133.987 75.680 C 134.109 75.364,134.312 74.868,134.439 74.578 C 134.566 74.288,134.670 73.875,134.671 73.659 C 134.674 72.385,134.959 72.013,135.931 72.013 L 136.842 72.013 136.842 79.783 L 136.842 87.552 135.946 87.552 L 135.050 87.552 134.845 86.508 C 133.881 81.602,132.594 80.647,127.068 80.735 L 123.893 80.785 123.893 88.388 L 123.893 95.990 124.273 96.523 C 124.754 97.197,126.066 97.815,127.557 98.069 C 129.186 98.346,129.323 98.445,129.323 99.338 L 129.323 100.084 121.053 100.084 L 112.782 100.084 112.782 99.328 C 112.782 98.416,112.884 98.361,115.038 98.097 C 116.797 97.882,117.535 97.414,117.994 96.223 C 118.431 95.090,118.428 65.473,117.991 64.332 C 117.559 63.204,116.044 62.384,113.784 62.056 C 112.883 61.926,112.788 61.804,112.785 60.777 L 112.782 59.983 127.655 59.983 L 142.528 59.983 142.484 64.954 M268.882 60.239 C 270.659 60.505,272.906 61.181,273.363 61.587 C 273.508 61.716,273.716 61.821,273.824 61.821 C 273.932 61.821,274.547 62.338,275.190 62.970 C 278.602 66.322,278.409 71.934,274.764 75.324 C 273.347 76.642,272.451 77.140,269.771 78.098 C 268.576 78.526,268.415 78.807,269.288 78.947 C 273.297 79.588,276.493 81.451,278.346 84.225 C 280.120 86.881,280.196 91.364,278.515 94.158 C 277.428 95.964,274.327 98.740,273.386 98.748 C 273.320 98.748,273.079 98.845,272.849 98.963 C 272.375 99.206,270.856 99.637,269.536 99.904 C 268.961 100.020,265.167 100.084,258.801 100.084 L 248.956 100.084 248.956 99.338 C 248.956 98.441,249.108 98.333,250.728 98.080 C 252.643 97.781,253.676 97.085,253.922 95.929 C 253.994 95.595,254.052 88.404,254.052 79.950 L 254.052 64.578 253.657 63.943 C 253.053 62.971,252.123 62.467,250.292 62.119 C 249.210 61.913,249.129 61.820,249.125 60.777 L 249.123 59.983 258.146 59.983 C 265.397 59.983,267.506 60.034,268.882 60.239 M259.858 62.266 C 259.495 62.413,259.561 77.413,259.926 77.716 C 260.684 78.343,265.652 77.865,267.490 76.987 C 272.128 74.773,272.890 66.165,268.704 63.264 C 267.308 62.297,261.426 61.633,259.858 62.266 M266.500 62.630 C 268.428 63.147,269.449 63.985,270.356 65.796 L 270.917 66.917 270.905 69.591 C 270.896 71.739,270.839 72.362,270.619 72.765 C 270.468 73.041,270.344 73.364,270.344 73.483 C 270.340 74.310,268.567 76.184,267.251 76.753 C 266.884 76.912,266.450 77.115,266.288 77.204 C 265.927 77.403,261.046 77.620,260.429 77.465 L 259.983 77.354 259.983 70.161 C 259.983 65.415,260.044 62.856,260.160 62.638 C 260.368 62.250,265.058 62.244,266.500 62.630 M232.196 63.599 C 232.132 63.663,232.080 65.501,232.080 67.683 C 232.080 72.667,232.325 72.180,229.820 72.180 C 227.096 72.180,227.235 72.095,227.235 73.768 C 227.235 75.441,227.095 75.355,229.831 75.355 L 231.899 75.355 231.960 85.589 C 232.025 96.490,232.018 96.392,232.880 98.194 C 234.374 101.318,239.633 101.987,244.333 99.650 C 244.593 99.521,244.942 99.415,245.108 99.415 C 245.507 99.415,245.614 99.093,245.614 97.898 L 245.614 96.909 244.936 96.909 C 244.563 96.909,243.739 96.995,243.104 97.099 C 241.418 97.378,239.619 97.041,238.861 96.305 C 237.702 95.179,237.690 95.065,237.627 84.673 L 237.572 75.362 241.300 75.317 L 245.029 75.272 245.029 73.768 L 245.029 72.264 241.353 72.180 L 237.678 72.097 237.594 67.836 L 237.510 63.576 234.911 63.530 C 233.481 63.505,232.259 63.536,232.196 63.599 M237.126 67.926 C 237.168 71.499,237.217 72.219,237.427 72.351 C 237.565 72.438,239.313 72.511,241.312 72.512 L 244.946 72.515 244.946 73.768 L 244.946 75.021 241.290 75.021 C 238.304 75.021,237.598 75.065,237.434 75.263 C 237.049 75.727,237.283 94.122,237.687 95.130 C 238.469 97.083,240.408 97.858,243.442 97.430 C 244.131 97.333,244.845 97.232,245.029 97.206 C 245.690 97.114,245.570 98.978,244.904 99.163 C 244.434 99.294,243.286 99.735,242.905 99.931 C 240.753 101.041,236.080 100.880,234.455 99.640 C 232.581 98.211,232.545 97.969,232.421 85.828 C 232.330 76.926,232.277 75.309,232.072 75.179 C 231.939 75.095,230.871 75.025,229.699 75.023 L 227.569 75.021 227.569 73.768 L 227.569 72.515 229.813 72.515 C 232.834 72.515,232.581 72.943,232.581 67.824 L 232.581 63.659 234.829 63.659 L 237.077 63.659 237.126 67.926 M71.846 66.454 C 71.708 66.507,71.540 66.632,71.473 66.733 C 71.142 67.229,71.333 94.886,71.668 95.065 C 71.849 95.162,73.070 95.238,74.436 95.238 C 75.802 95.238,77.023 95.162,77.204 95.065 C 77.520 94.896,77.527 94.561,77.527 80.775 L 77.527 66.658 77.099 66.495 C 76.648 66.324,72.278 66.290,71.846 66.454 M87.648 66.595 C 87.267 66.976,87.245 94.746,87.625 95.062 C 88.006 95.378,93.362 95.236,93.571 94.904 C 93.937 94.324,93.772 67.038,93.400 66.667 C 92.946 66.213,88.090 66.152,87.648 66.595 M39.465 66.700 C 39.253 66.913,39.156 94.260,39.366 94.807 C 39.422 94.952,39.537 95.071,39.623 95.071 C 39.712 95.071,39.704 94.932,39.604 94.746 C 39.486 94.526,39.444 89.960,39.473 80.674 L 39.515 66.927 39.933 66.716 C 40.307 66.527,40.315 66.504,40.008 66.502 C 39.820 66.501,39.576 66.590,39.465 66.700 M44.987 66.680 C 45.360 66.897,45.450 94.500,45.079 94.871 C 44.945 95.005,44.052 95.083,42.364 95.108 L 39.850 95.145 42.317 95.196 C 43.838 95.227,44.911 95.179,45.115 95.070 C 45.442 94.895,45.447 94.685,45.447 80.960 C 45.447 66.696,45.440 66.496,44.970 66.505 C 44.726 66.509,44.728 66.529,44.987 66.680 M55.505 66.700 C 55.108 67.097,55.228 94.851,55.628 95.065 C 56.034 95.282,60.811 95.290,61.153 95.075 C 61.467 94.876,61.627 67.407,61.317 66.828 C 61.203 66.615,60.981 66.506,60.688 66.519 C 60.338 66.534,60.311 66.557,60.568 66.620 C 61.349 66.812,61.320 66.275,61.320 80.628 C 61.320 89.051,61.258 94.377,61.157 94.642 L 60.994 95.071 58.406 95.071 C 56.018 95.071,55.805 95.046,55.645 94.748 C 55.315 94.131,55.415 67.174,55.749 66.805 C 56.051 66.471,55.830 66.375,55.505 66.700 M58.189 66.619 C 58.443 66.658,58.819 66.657,59.025 66.617 C 59.230 66.578,59.023 66.546,58.563 66.547 C 58.104 66.549,57.935 66.581,58.189 66.619 M93.191 66.877 C 93.547 67.158,93.491 94.455,93.133 94.813 C 92.908 95.038,92.472 95.072,90.335 95.034 L 87.803 94.987 87.803 80.869 L 87.803 66.750 89.975 66.667 C 92.292 66.578,92.860 66.615,93.191 66.877 M77.160 66.867 C 77.504 67.212,77.444 94.462,77.098 94.808 C 76.795 95.111,72.302 95.196,71.846 94.907 C 71.627 94.769,71.596 93.025,71.596 80.869 C 71.596 68.713,71.627 66.969,71.846 66.830 C 72.227 66.589,76.914 66.622,77.160 66.867 M154.365 71.422 C 154.323 71.464,153.878 71.609,153.376 71.745 C 148.573 73.044,145.699 76.768,147.146 79.819 C 148.142 81.919,151.285 81.923,152.626 79.826 C 152.967 79.293,152.996 77.789,152.698 76.076 C 152.430 74.541,153.425 73.878,156.024 73.861 C 159.303 73.839,160.895 75.938,160.900 80.294 L 160.902 82.308 160.192 82.611 C 159.802 82.777,159.276 83.011,159.024 83.131 C 158.772 83.250,158.341 83.397,158.065 83.458 C 157.790 83.518,157.522 83.637,157.469 83.722 C 157.417 83.807,157.230 83.876,157.055 83.876 C 156.880 83.876,156.490 83.983,156.188 84.113 C 155.886 84.243,155.365 84.469,155.029 84.614 C 154.694 84.760,154.303 84.879,154.162 84.879 C 154.020 84.879,153.858 84.954,153.801 85.046 C 153.744 85.138,153.571 85.213,153.415 85.214 C 153.260 85.215,152.917 85.327,152.654 85.465 C 152.391 85.602,152.071 85.714,151.943 85.714 C 150.856 85.714,147.647 87.968,146.761 89.354 C 145.609 91.155,145.075 95.131,145.803 96.491 C 145.902 96.675,146.163 97.194,146.383 97.644 C 147.422 99.766,150.827 101.578,153.029 101.180 C 153.362 101.120,154.117 100.998,154.707 100.908 C 155.297 100.818,155.861 100.682,155.960 100.605 C 156.059 100.528,156.382 100.419,156.677 100.363 C 157.308 100.244,158.812 99.250,159.987 98.177 C 160.886 97.356,161.196 97.247,161.338 97.703 C 161.671 98.768,162.792 100.020,163.879 100.541 C 164.598 100.885,168.538 100.966,168.945 100.645 C 169.070 100.545,169.388 100.412,169.650 100.350 C 170.659 100.108,170.927 99.789,170.927 98.829 C 170.927 97.801,170.849 97.744,169.436 97.744 C 166.472 97.744,166.340 97.268,166.502 87.154 C 166.633 79.022,166.520 77.615,165.579 75.601 C 164.845 74.033,162.832 72.174,161.590 71.919 C 161.350 71.869,160.787 71.720,160.340 71.587 C 159.576 71.360,154.566 71.221,154.365 71.422 M211.863 71.633 C 208.375 72.853,206.411 74.999,205.783 78.279 C 205.423 80.159,205.648 81.624,206.543 83.208 C 206.620 83.346,206.757 83.627,206.846 83.833 C 207.199 84.650,208.927 86.163,210.300 86.859 C 211.191 87.310,211.624 87.507,212.865 88.026 C 213.095 88.122,213.810 88.367,214.453 88.571 C 215.096 88.775,215.694 89.005,215.781 89.083 C 215.868 89.160,216.064 89.223,216.216 89.223 C 217.244 89.223,219.633 91.007,220.167 92.173 C 222.163 96.534,217.510 100.138,212.698 97.958 C 211.126 97.245,208.694 94.664,208.090 93.066 C 208.038 92.928,207.888 92.568,207.757 92.267 C 207.626 91.965,207.517 91.589,207.515 91.431 C 207.506 90.729,206.969 90.370,206.007 90.425 L 205.096 90.476 205.052 95.218 C 205.001 100.674,204.932 100.418,206.444 100.418 C 207.592 100.418,208.020 100.112,208.020 99.294 C 208.020 98.818,208.133 98.819,208.858 99.301 C 209.695 99.857,210.830 100.418,211.119 100.418 C 211.255 100.418,211.497 100.490,211.656 100.577 C 213.992 101.862,218.967 101.132,221.839 99.083 C 225.757 96.287,226.433 90.085,223.187 86.728 C 222.433 85.948,220.096 84.383,219.668 84.372 C 219.557 84.369,219.319 84.257,219.141 84.122 C 218.963 83.987,218.687 83.876,218.528 83.876 C 218.369 83.876,218.026 83.768,217.766 83.636 C 217.133 83.314,216.285 82.963,215.372 82.645 C 211.425 81.271,210.359 80.230,210.359 77.747 C 210.359 72.846,217.357 72.395,220.256 77.109 C 220.678 77.797,221.387 79.678,221.387 80.112 C 221.387 80.647,223.235 80.959,223.693 80.501 C 223.937 80.257,223.930 78.564,223.667 74.436 L 223.475 71.429 222.361 71.379 C 221.225 71.329,221.153 71.359,220.644 72.095 C 220.420 72.418,220.391 72.420,219.522 72.141 C 219.031 71.983,218.270 71.740,217.830 71.600 C 216.722 71.247,212.906 71.268,211.863 71.633 M292.481 71.634 C 286.566 73.456,283.753 78.027,286.797 80.868 C 287.371 81.404,289.665 81.593,290.045 81.136 C 290.167 80.989,290.356 80.869,290.465 80.869 C 291.160 80.869,291.954 79.310,291.838 78.175 C 291.509 74.956,291.510 75.022,291.819 74.680 C 291.982 74.500,292.208 74.353,292.321 74.353 C 292.434 74.353,292.742 74.240,293.005 74.103 C 294.286 73.435,297.010 73.892,298.165 74.969 C 299.724 76.423,300.691 82.540,299.361 82.540 C 299.148 82.540,298.382 82.854,297.705 83.219 C 297.545 83.305,297.320 83.376,297.204 83.376 C 297.087 83.377,296.791 83.482,296.544 83.611 C 296.298 83.740,295.866 83.895,295.585 83.957 C 295.305 84.019,295.032 84.139,294.980 84.223 C 294.927 84.308,294.747 84.378,294.579 84.378 C 294.411 84.378,294.058 84.490,293.795 84.627 C 293.532 84.764,293.189 84.877,293.034 84.878 C 292.879 84.878,292.705 84.954,292.648 85.046 C 292.591 85.138,292.418 85.213,292.262 85.214 C 292.107 85.215,291.765 85.327,291.501 85.465 C 291.238 85.602,290.920 85.714,290.795 85.714 C 290.188 85.714,287.410 87.359,286.500 88.257 C 281.507 93.181,285.645 102.351,292.301 101.114 C 292.860 101.011,293.675 100.878,294.112 100.820 C 294.550 100.761,294.949 100.647,294.999 100.566 C 295.050 100.484,295.219 100.418,295.376 100.418 C 295.707 100.418,296.852 99.830,297.202 99.480 C 297.334 99.348,297.641 99.135,297.886 99.007 C 298.130 98.878,298.697 98.397,299.147 97.936 L 299.964 97.099 300.275 97.708 C 300.445 98.042,300.585 98.381,300.585 98.459 C 300.585 98.795,301.519 99.783,302.314 100.288 C 303.241 100.878,307.170 101.137,307.786 100.650 C 307.915 100.547,308.241 100.411,308.511 100.346 C 310.654 99.832,310.535 97.744,308.363 97.744 C 307.850 97.744,307.300 97.675,307.141 97.589 C 306.981 97.504,306.727 97.397,306.576 97.351 C 306.425 97.305,306.086 96.985,305.824 96.641 L 305.347 96.015 305.347 87.147 C 305.347 77.384,305.341 77.326,304.266 75.201 C 303.547 73.781,301.454 72.046,300.162 71.801 C 299.889 71.749,299.365 71.627,298.997 71.530 C 297.958 71.255,293.480 71.327,292.481 71.634 M327.014 71.763 C 325.134 72.464,324.204 73.063,322.418 74.722 C 321.566 75.513,321.470 75.434,321.470 73.936 C 321.470 73.258,321.393 72.501,321.299 72.253 L 321.128 71.803 318.417 71.911 C 316.926 71.970,314.804 72.111,313.701 72.225 L 311.696 72.431 311.647 73.266 C 311.583 74.347,311.835 74.685,312.788 74.797 C 315.864 75.159,315.957 75.513,315.957 86.899 C 315.957 97.973,316.067 97.448,313.617 97.996 C 311.912 98.377,311.871 98.406,311.812 99.296 C 311.736 100.454,311.565 100.428,318.915 100.378 L 325.397 100.334 325.447 99.379 L 325.497 98.424 324.883 98.168 C 324.546 98.027,324.118 97.911,323.933 97.911 C 323.205 97.911,322.150 97.205,321.801 96.484 C 321.471 95.803,321.463 95.534,321.508 87.281 L 321.554 78.780 322.139 78.000 C 322.720 77.225,324.117 76.191,325.397 75.587 C 326.274 75.173,329.402 75.128,329.897 75.522 C 332.320 77.449,332.495 78.298,332.497 88.151 C 332.498 97.236,332.420 97.627,330.534 97.933 C 330.098 98.004,329.440 98.123,329.073 98.198 L 328.404 98.333 328.353 99.234 C 328.282 100.470,327.951 100.412,335.096 100.415 C 342.107 100.418,341.856 100.458,341.852 99.340 C 341.849 98.471,341.759 98.360,340.852 98.099 C 337.937 97.260,338.114 97.947,338.000 87.051 L 337.904 77.945 337.455 76.639 C 336.965 75.217,336.158 73.850,335.402 73.165 C 334.684 72.514,333.627 71.846,333.314 71.846 C 333.162 71.846,332.822 71.734,332.559 71.597 C 331.740 71.169,328.332 71.272,327.014 71.763 M159.366 71.790 C 162.229 72.236,163.816 73.189,164.925 75.127 C 165.995 76.997,165.998 77.028,166.001 86.884 C 166.004 95.280,166.023 95.858,166.315 96.400 C 166.933 97.545,167.616 97.922,169.277 98.036 L 170.593 98.126 170.593 98.848 C 170.593 99.670,170.504 99.744,168.894 100.273 C 165.722 101.314,162.843 100.334,161.799 97.856 C 161.329 96.741,161.032 96.711,160.001 97.674 C 156.204 101.220,150.782 101.879,147.960 99.138 C 147.164 98.365,146.199 96.867,146.199 96.405 C 146.199 96.210,146.120 95.903,146.023 95.722 C 145.787 95.282,145.802 92.532,146.044 91.760 C 146.978 88.790,148.853 87.134,152.882 85.724 C 153.628 85.463,154.284 85.204,154.340 85.148 C 154.396 85.092,154.549 85.046,154.681 85.046 C 154.813 85.046,155.157 84.940,155.447 84.810 C 155.736 84.680,156.922 84.223,158.082 83.794 C 159.242 83.365,160.434 82.865,160.732 82.685 L 161.272 82.356 161.205 79.900 C 161.130 77.192,160.833 76.217,159.686 74.910 C 158.091 73.093,154.589 72.938,152.485 74.592 C 152.153 74.853,152.153 74.808,152.508 77.611 C 152.930 80.938,148.945 82.576,147.533 79.655 C 146.069 76.625,149.346 72.844,154.302 71.844 C 154.854 71.733,155.380 71.618,155.472 71.590 C 155.934 71.448,157.775 71.542,159.366 71.790 M217.544 71.907 C 218.141 72.036,219.043 72.301,219.549 72.495 C 220.723 72.947,220.642 72.963,221.142 72.172 C 221.554 71.519,221.598 71.496,222.355 71.545 L 223.141 71.596 223.244 74.520 C 223.300 76.128,223.403 78.056,223.473 78.804 L 223.599 80.165 223.107 80.273 C 222.275 80.456,221.783 80.156,221.661 79.390 C 220.873 74.464,214.002 71.658,210.963 75.022 C 209.430 76.719,209.664 79.680,211.444 81.121 C 212.028 81.593,214.181 82.707,214.510 82.707 C 214.626 82.707,216.983 83.581,217.627 83.863 C 217.811 83.943,218.375 84.174,218.881 84.375 C 224.254 86.516,226.302 91.260,223.922 96.055 C 221.629 100.675,214.337 102.280,209.387 99.254 C 208.221 98.541,208.086 98.554,207.649 99.415 C 207.302 100.100,207.208 100.171,206.600 100.211 C 205.478 100.284,205.516 100.440,205.400 95.371 C 205.282 90.260,205.260 90.364,206.399 90.650 C 206.808 90.752,206.856 90.834,207.615 92.732 C 207.780 93.145,208.014 93.602,208.135 93.747 C 208.256 93.893,208.354 94.074,208.354 94.150 C 208.354 94.680,210.451 96.955,211.678 97.755 C 214.157 99.373,217.941 99.262,219.723 97.519 C 222.207 95.091,221.272 91.303,217.762 89.577 C 216.267 88.843,216.143 88.791,214.871 88.384 C 214.273 88.192,213.654 87.964,213.494 87.877 C 213.335 87.790,213.124 87.719,213.027 87.719 C 212.294 87.719,209.256 85.978,208.305 85.012 C 206.632 83.314,206.121 82.071,206.126 79.718 C 206.136 75.835,208.517 72.709,212.030 71.966 C 212.444 71.879,213.083 71.745,213.450 71.670 C 214.294 71.497,216.134 71.604,217.544 71.907 M299.005 71.898 C 301.199 72.328,302.842 73.474,303.838 75.272 C 304.809 77.024,304.807 77.002,304.914 86.997 C 305.010 95.969,305.022 96.229,305.357 96.678 C 306.094 97.664,307.042 98.066,308.647 98.075 L 309.440 98.079 309.440 98.825 C 309.440 99.667,309.361 99.736,307.798 100.259 C 304.606 101.328,301.781 100.329,300.630 97.724 C 300.137 96.610,300.030 96.608,298.870 97.694 C 294.187 102.078,287.443 101.784,285.373 97.105 C 283.242 92.288,285.756 87.787,291.729 85.723 C 292.327 85.516,292.966 85.287,293.150 85.214 C 293.333 85.141,294.160 84.840,294.987 84.547 C 295.815 84.253,296.728 83.907,297.018 83.778 C 297.307 83.648,297.613 83.542,297.697 83.542 C 297.944 83.542,299.640 82.695,299.958 82.413 C 300.605 81.839,300.247 77.822,299.401 76.163 C 298.074 73.562,294.960 72.682,292.111 74.103 C 291.081 74.617,291.042 74.748,291.307 76.766 C 291.582 78.868,291.515 79.439,290.914 80.087 C 289.555 81.550,287.272 81.394,286.466 79.783 C 284.516 75.881,289.904 71.330,296.157 71.596 C 297.076 71.636,298.358 71.771,299.005 71.898 M332.498 71.899 C 334.236 72.357,335.613 73.490,336.408 75.116 C 337.633 77.618,337.678 78.058,337.678 87.783 C 337.678 96.825,337.683 96.878,338.619 97.523 C 339.158 97.893,340.390 98.366,341.019 98.444 C 341.402 98.492,341.437 98.566,341.437 99.332 L 341.437 100.167 335.589 100.215 C 328.447 100.274,328.655 100.300,328.655 99.342 C 328.655 98.544,328.806 98.413,329.725 98.413 C 330.690 98.413,331.805 97.922,332.294 97.281 L 332.749 96.685 332.798 88.317 C 332.856 78.330,332.715 77.428,330.843 75.825 C 328.363 73.702,323.011 75.238,321.290 78.565 C 320.831 79.452,320.790 95.395,321.244 96.352 C 321.806 97.537,322.653 98.061,324.561 98.406 C 325.126 98.508,325.421 99.806,324.948 100.106 C 324.697 100.265,313.233 100.300,312.648 100.143 C 312.308 100.052,312.270 99.953,312.314 99.268 L 312.364 98.496 313.283 98.403 C 314.543 98.276,315.338 97.891,315.764 97.201 C 316.304 96.326,316.332 77.421,315.794 76.367 C 315.366 75.528,314.403 74.744,313.639 74.611 C 312.282 74.376,312.092 74.218,312.147 73.368 L 312.197 72.598 314.286 72.496 C 315.434 72.439,317.283 72.295,318.394 72.175 C 321.087 71.884,320.969 71.808,320.969 73.832 C 320.969 76.355,321.149 76.524,322.454 75.230 C 324.465 73.236,326.064 72.265,327.987 71.872 C 328.492 71.768,329.056 71.649,329.240 71.608 C 329.726 71.499,331.626 71.668,332.498 71.899 M176.441 72.026 C 176.028 72.105,174.900 72.228,173.935 72.300 L 172.180 72.431 172.130 73.502 C 172.072 74.737,172.159 74.841,173.266 74.865 C 174.326 74.887,175.258 75.443,175.770 76.358 L 176.190 77.109 176.288 85.798 C 176.395 95.325,176.381 95.183,177.419 97.424 C 178.688 100.164,181.926 101.592,185.546 101.008 C 186.464 100.860,187.287 100.666,187.375 100.578 C 187.463 100.490,187.665 100.418,187.824 100.418 C 187.983 100.418,188.214 100.324,188.336 100.209 C 188.459 100.094,188.841 99.857,189.184 99.681 C 189.527 99.506,189.808 99.309,189.808 99.244 C 189.808 99.179,190.090 98.934,190.434 98.699 C 190.779 98.465,191.362 97.999,191.729 97.664 L 192.398 97.054 192.446 98.518 C 192.473 99.324,192.576 100.080,192.676 100.200 C 192.889 100.457,195.914 100.482,198.162 100.244 C 202.618 99.772,202.172 99.919,202.172 98.931 C 202.172 97.930,202.026 97.800,200.562 97.498 C 197.964 96.961,197.995 97.127,197.995 83.634 C 197.995 76.936,197.932 72.537,197.832 72.275 L 197.669 71.846 195.535 71.847 C 194.361 71.848,192.949 71.923,192.398 72.014 C 191.846 72.105,190.543 72.230,189.501 72.290 C 187.372 72.414,187.163 72.567,187.368 73.851 C 187.502 74.694,187.829 74.854,189.415 74.854 C 191.030 74.854,191.930 75.455,192.295 76.775 C 192.679 78.168,192.541 93.515,192.138 94.167 C 191.707 94.864,189.514 96.909,189.197 96.909 C 189.067 96.909,188.794 97.010,188.591 97.134 C 186.479 98.416,183.602 97.461,182.420 95.085 L 182.038 94.319 181.955 83.375 C 181.909 77.356,181.807 72.299,181.728 72.139 C 181.568 71.812,177.972 71.736,176.441 72.026 M181.465 82.790 C 181.521 89.171,181.628 93.753,181.729 94.152 C 182.827 98.461,187.480 99.257,191.178 95.768 C 193.132 93.925,193.005 94.679,192.948 85.247 L 192.899 77.109 192.506 76.311 C 191.901 75.082,191.285 74.707,189.553 74.510 C 187.782 74.309,187.803 74.321,187.803 73.528 C 187.803 72.620,187.940 72.570,190.727 72.465 C 192.105 72.413,194.083 72.274,195.123 72.157 C 197.885 71.846,197.563 70.356,197.661 83.895 C 197.725 92.847,197.793 95.600,197.960 95.976 C 198.241 96.613,199.270 97.577,199.668 97.577 C 199.840 97.577,200.027 97.652,200.084 97.744 C 200.140 97.836,200.389 97.912,200.636 97.914 C 201.647 97.919,201.838 98.065,201.838 98.832 C 201.838 99.696,201.735 99.749,200.082 99.749 C 199.407 99.749,198.304 99.823,197.631 99.913 C 196.958 100.003,195.656 100.097,194.737 100.122 L 193.066 100.167 192.982 98.414 C 192.880 96.260,192.782 96.209,191.350 97.562 C 188.760 100.009,187.246 100.659,184.127 100.664 L 181.704 100.668 180.565 100.097 C 177.204 98.410,176.780 96.817,176.633 85.297 L 176.525 76.775 176.128 76.138 C 175.610 75.304,174.675 74.730,173.605 74.588 C 172.613 74.456,172.264 74.183,172.264 73.537 C 172.264 72.636,172.461 72.564,175.272 72.439 C 176.696 72.375,178.237 72.262,178.697 72.187 C 179.156 72.112,179.946 72.061,180.451 72.074 L 181.370 72.097 181.465 82.790 M261.738 80.021 C 260.819 80.075,259.973 80.179,259.858 80.253 C 259.502 80.482,259.562 95.087,259.922 95.845 C 261.554 99.286,269.342 98.623,271.738 94.839 C 276.153 87.868,271.789 79.491,263.953 79.894 C 263.653 79.910,262.657 79.967,261.738 80.021 M267.396 80.649 C 271.562 82.016,273.603 85.482,272.934 90.057 C 272.166 95.309,270.037 97.448,265.330 97.696 C 263.928 97.770,261.950 97.419,261.726 97.057 C 261.676 96.976,261.526 96.909,261.394 96.909 C 261.031 96.909,260.578 96.384,260.264 95.599 C 259.897 94.681,259.830 80.624,260.192 80.478 C 260.784 80.239,266.565 80.376,267.396 80.649 M159.358 85.202 C 158.923 85.359,158.516 85.539,158.453 85.601 C 158.391 85.663,158.216 85.714,158.064 85.714 C 156.603 85.714,152.604 88.601,151.677 90.324 C 148.276 96.647,155.865 100.856,160.612 95.280 L 161.242 94.541 161.197 89.752 L 161.153 84.962 160.652 84.939 C 160.376 84.926,159.794 85.045,159.358 85.202 M298.743 85.034 C 298.603 85.118,298.001 85.353,297.406 85.556 C 294.117 86.678,291.494 88.451,290.708 90.084 C 290.561 90.392,290.335 90.861,290.207 91.128 C 289.798 91.982,289.894 94.852,290.362 95.749 C 291.902 98.702,296.033 98.654,299.042 95.648 L 300.256 94.435 300.211 89.699 L 300.167 84.962 299.582 84.921 C 299.261 84.899,298.883 84.949,298.743 85.034 M160.902 89.786 L 160.902 94.526 159.816 95.548 C 155.276 99.818,149.881 96.947,151.701 91.228 C 152.444 88.895,154.807 87.124,159.060 85.713 C 159.655 85.516,160.257 85.287,160.397 85.205 C 160.537 85.123,160.708 85.054,160.777 85.051 C 160.846 85.048,160.902 87.179,160.902 89.786 M299.828 86.271 C 299.825 86.884,299.806 88.996,299.786 90.964 L 299.749 94.543 298.759 95.534 C 296.987 97.305,293.403 98.221,292.267 97.192 C 292.095 97.036,291.884 96.909,291.798 96.909 C 290.685 96.909,289.852 93.556,290.465 91.538 C 290.990 89.808,293.839 86.884,295.000 86.884 C 295.040 86.884,295.451 86.701,295.914 86.478 C 296.377 86.255,296.977 86.023,297.248 85.964 C 297.519 85.904,297.783 85.786,297.836 85.701 C 297.888 85.617,298.096 85.545,298.297 85.541 C 298.499 85.538,298.851 85.428,299.081 85.297 C 299.725 84.929,299.833 85.070,299.828 86.271 M37.510 99.675 C 37.602 99.713,50.610 99.764,66.416 99.788 L 95.155 99.833 95.769 100.215 C 97.597 101.352,97.674 104.222,95.916 105.699 L 95.341 106.182 66.509 106.268 L 37.678 106.354 66.583 106.352 L 95.489 106.349 96.137 105.854 C 98.016 104.416,97.852 101.261,95.830 99.979 C 95.353 99.676,94.377 99.665,66.340 99.636 C 50.392 99.620,37.419 99.637,37.510 99.675 M36.174 100.060 C 34.826 100.893,34.297 102.447,34.772 104.177 C 34.992 104.978,36.248 106.267,36.803 106.262 C 37.081 106.259,37.001 106.179,36.491 105.947 C 34.113 104.867,34.254 100.866,36.701 99.993 C 37.076 99.859,37.204 99.761,37.009 99.757 C 36.825 99.754,36.449 99.890,36.174 100.060 " stroke="none" fill="#9a9a9a" fill-rule="evenodd"></path></g></svg>